<?xml version="1.0" standalone="no"?><!DOCTYPE svg PUBLIC "-//W3C//DTD SVG 1.1//EN" "http://www.w3.org/Graphics/SVG/1.1/DTD/svg11.dtd"><svg t="1702813790339" class="icon" viewBox="0 0 1496 1024" version="1.1" xmlns="http://www.w3.org/2000/svg" p-id="4279" xmlns:xlink="http://www.w3.org/1999/xlink" width="292.1875" height="200"><path d="M329.563218 659.126437c43.157088-39.233716 62.773946-94.16092 58.850575-149.088123 3.923372-43.157088-11.770115-86.314176-39.233716-117.701149-23.54023-19.616858-51.003831-31.386973-82.390805-31.386973 27.463602-11.770115 47.08046-31.386973 58.850575-58.850575 19.616858-35.310345 31.386973-78.467433 31.386973-121.624521C360.950192 129.471264 345.256705 78.467433 309.94636 39.233716c-39.233716-27.463602-86.314176-39.233716-133.394636-39.233716H0v721.900383h180.475096c54.927203 3.923372 109.854406-19.616858 149.088122-62.773946zM58.850575 58.850575h117.701149c66.697318 0 117.701149 54.927203 117.70115 121.624521 0 39.233716-15.693487 82.390805-35.310345 113.777778-19.616858 27.463602-51.003831 39.233716-82.390805 35.310344h-117.701149V58.850575z m31.386973 329.563218h90.237548c94.16092 0 149.088123 51.003831 149.088122 121.624521 0 31.386973-11.770115 62.773946-31.386973 90.237548-27.463602 35.310345-74.544061 58.850575-117.701149 58.850575h-117.70115V388.413793h27.463602zM478.651341 0h58.850575v721.900383h-58.850575V0z m482.574713 655.203065c39.233716-51.003831 54.927203-109.854406 54.927203-172.628352 3.923372-62.773946-15.693487-125.547893-51.003832-176.551724-31.386973-43.157088-82.390805-66.697318-137.318007-62.773947-54.927203-3.923372-109.854406 23.54023-145.164751 66.697318-39.233716 51.003831-58.850575 113.777778-54.927203 176.551724-3.923372 62.773946 15.693487 125.547893 51.003831 176.551724 35.310345 43.157088 86.314176 66.697318 137.318008 62.773947 58.850575-3.923372 109.854406-27.463602 145.164751-70.62069z m-274.636016-176.551724c-3.923372-47.08046 11.770115-94.16092 35.310345-133.394636 23.54023-27.463602 62.773946-47.08046 102.007663-47.08046s74.544061 15.693487 98.084291 47.08046c47.08046 82.390805 47.08046 184.398467 0 266.789272-23.54023 31.386973-58.850575 47.08046-98.084291 47.08046s-74.544061-15.693487-98.084291-47.08046c-31.386973-39.233716-43.157088-86.314176-39.233717-133.394636zM1490.881226 749.363985v-510.038315h-58.850575v58.850575c-27.463602-43.157088-78.467433-66.697318-129.471264-58.850575-51.003831-3.923372-105.931034 19.616858-137.318008 58.850575-39.233716 51.003831-58.850575 113.777778-58.850574 180.475096 0 54.927203 23.54023 109.854406 58.850574 149.088123 27.463602 39.233716 70.62069 58.850575 117.70115 58.850574 51.003831 3.923372 102.007663-15.693487 133.394636-58.850574l15.693486-31.386974V745.440613c0 39.233716-11.770115 78.467433-27.463601 113.777778l-35.310345 43.157088c-66.697318 39.233716-153.011494 39.233716-219.708812 0-113.777778-54.927203-333.48659-51.003831-372.720307 90.237548l58.850575 31.386973c19.616858-39.233716 51.003831-70.62069 90.237548-90.237548 23.54023-11.770115 141.241379 3.923372 188.321839 23.54023 11.770115 7.846743 27.463602 11.770115 43.157088 15.693487h7.846743c27.463602 7.846743 58.850575 15.693487 90.237548 15.693486 149.088123 0 235.402299-58.850575 235.402299-239.32567z m-94.160919-168.704981c-27.463602 27.463602-62.773946 47.08046-102.007663 51.003831-39.233716-3.923372-74.544061-19.616858-102.007663-51.003831-23.54023-31.386973-35.310345-70.62069-31.386973-109.854406-3.923372-43.157088 7.846743-86.314176 35.310344-125.547893 23.54023-31.386973 62.773946-47.08046 98.084292-47.08046s74.544061 11.770115 102.007663 35.310345c19.616858 35.310345 31.386973 74.544061 35.310344 113.777778v31.386973c0 39.233716-11.770115 74.544061-35.310344 102.007663z" fill="#2d8cf0" p-id="4280"></path></svg>