<?xml version="1.0" standalone="no"?><!DOCTYPE svg PUBLIC "-//W3C//DTD SVG 1.1//EN" "http://www.w3.org/Graphics/SVG/1.1/DTD/svg11.dtd"><svg t="1709980296421" class="icon" viewBox="0 0 1024 1024" version="1.1" xmlns="http://www.w3.org/2000/svg" p-id="3505" xmlns:xlink="http://www.w3.org/1999/xlink" width="200" height="200"><path d="M758.8 317.8h-71.6v59.6l71.6 55zM528.3 632.2c-3.1 5.1-8.6 8.2-14.5 8.2s-11.4-3.1-14.5-8.2C485.2 608.8 465.5 596 444 596c-28.1 0-54.2 22.1-61.9 52.5-5.7 22.3-12.5 100.2 131.7 181.8 144.3-81.6 137.5-159.6 131.8-181.8-7.8-30.4-33.8-52.5-62-52.5-21.5-0.1-41.1 12.8-55.3 36.2z" fill="#FDB9D0" p-id="3506"></path><path d="M908.2 547.2l-115.8-89c0.2-1.1 0.4-2.3 0.4-3.4v-154c0-9.4-7.6-17-17-17H670.3c-9.4 0-17 7.6-17 17v50.5l-129.1-99.2c-6.1-4.7-14.6-4.7-20.7 0l-384 295.1c-5.8 4.4-8.1 12-5.7 18.9 2.3 6.9 8.8 11.5 16.1 11.5H235v309.3c0 40.2 32.7 73 73 73h411.8c40.2 0 73-32.7 73-73V577.6h105.1c7.3 0 13.7-4.6 16.1-11.5 2.3-6.9 0-14.5-5.8-18.9z m-221-229.4h71.6v114.6l-71.6-55v-59.6z m71.6 569.1c0 21.5-17.5 39.1-39.1 39.1H307.9c-21.5 0-39.1-17.5-39.1-39.1V569.1l245-185.6 245 185.6v317.8z m22.7-343.2l-257.4-195c-6.1-4.6-14.4-4.6-20.5 0l-257.4 195h-66.5l334.1-256.8L848 543.7h-66.5z" fill="#3EBAC4" p-id="3507"></path><path d="M444 562c-44.1 0-83.1 32.1-94.8 78-6.2 24.3-7.4 62.9 21.7 109.3 26.3 42 71.7 80.7 134.8 115.2 2.5 1.4 5.3 2.1 8.1 2.1s5.6-0.7 8.1-2.1c63.1-34.4 108.5-73.2 134.8-115.2 29.1-46.4 27.9-85.1 21.7-109.3-11.7-45.9-50.7-78-94.8-78-26.6 0-50.7 11.5-69.8 32.8-19.1-21.3-43.2-32.8-69.8-32.8z m201.6 86.4c5.7 22.3 12.5 100.2-131.8 181.8-144.2-81.6-137.4-159.6-131.7-181.8 7.8-30.4 33.8-52.5 61.9-52.5 21.5 0 41.1 12.9 55.3 36.2 3.1 5.1 8.6 8.2 14.5 8.2s11.4-3.1 14.5-8.2c14.2-23.4 33.8-36.2 55.3-36.2 28.2 0 54.2 22.1 62 52.5zM714.9 248.6c2.5 1.4 5.3 2.1 8.1 2.1s5.6-0.7 8.1-2.1c36.6-20 63-42.6 78.5-67.3 17.8-28.3 16.9-52.2 13.1-67.2-7.4-29.1-32.3-49.4-60.5-49.4-14.4 0-28 5.5-39.2 15.5-11.2-10-24.8-15.5-39.2-15.5-28.2 0-53 20.3-60.5 49.4-3.8 15-4.7 38.9 13.1 67.2 15.5 24.7 41.9 47.3 78.5 67.3z m-58.7-126.1c3.5-13.8 15.1-23.9 27.6-23.9 9.5 0 18.1 5.8 24.7 16.8 3.1 5.1 8.6 8.2 14.5 8.2s11.4-3.1 14.5-8.2c6.7-11 15.2-16.8 24.7-16.8 12.5 0 24.1 10.1 27.6 23.9 5.7 22.5-9.1 57.9-66.8 91.7-57.7-33.8-72.5-69.2-66.8-91.7z" fill="#3EBAC4" p-id="3508"></path></svg>