<?xml version="1.0" standalone="no"?><!DOCTYPE svg PUBLIC "-//W3C//DTD SVG 1.1//EN" "http://www.w3.org/Graphics/SVG/1.1/DTD/svg11.dtd"><svg t="1704017153319" class="icon" viewBox="0 0 1024 1024" version="1.1" xmlns="http://www.w3.org/2000/svg" p-id="4492" xmlns:xlink="http://www.w3.org/1999/xlink" width="200" height="200"><path d="M482.771007 675.222579c65.026299 9.85247 231.204618-9.85247 321.847338-184.569596 89.985888-174.717126-27.586915-394.098781-27.586915-394.098782s18.391276 138.591405-58.457985 137.277743c-199.676716-3.940988-478.173188 1.313663-451.243105 254.193713 11.822963 112.318153 102.465683 170.119307 215.440667 187.196922" fill="#DAEFF7" p-id="4493"></path><path d="M337.611289 673.252085l22.332265-41.380372 17.734445 9.852469 16.420782 7.881976-9.195638 40.066709-15.10712-31.527902z" fill="#E29C4E" p-id="4494"></path><path d="M511.671584 45.978191s-176.68762 321.847338-39.409878 407.235407 217.411161-105.093008 221.352149-165.521488c3.940988-60.42848-27.586915-105.093008-27.586915-105.093008l-30.871071 22.989096s-11.166132-42.037203-36.125721-82.103913C575.384221 84.074407 511.671584 45.978191 511.671584 45.978191" fill="#E084B3" p-id="4495"></path><path d="M371.766517 592.461835c5.25465 1.970494 10.509301-0.656831 12.479795-5.911482 1.970494-5.25465-0.656831-11.166132-5.911482-13.793458-5.25465-1.970494-10.509301 0.656831-12.479795 5.911482-1.970494 5.25465 0.656831 11.822963 5.911482 13.793458" fill="#040000" p-id="4496"></path><path d="M487.368826 786.227069L299.515074 978.67864l-113.631816-129.395766 187.853753-191.794741z" fill="#DAEFF7" p-id="4497"></path><path d="M185.883258 849.282874l151.0712-31.527903 36.782553-160.266838z" fill="#D1D3D3" p-id="4498"></path><path d="M357.97306 822.35279c0 9.195638-7.225144 16.420783-15.763952 16.420783l-32.184733-0.656831c-8.538807 0-15.10712-7.881976-15.10712-17.077614 0-9.195638 7.225144-16.420783 15.763951-16.420783l32.184734 0.656831c8.538807 0 15.763951 7.881976 15.10712 17.077614z" fill="#E83828" p-id="4499"></path><path d="M344.179602 770.463117c8.538807 0 15.10712 7.881976 15.10712 17.077614l-0.656831 34.812059c0 9.195638-7.225144 16.420783-15.763951 16.420783-8.538807 0-15.10712-7.881976-15.10712-17.077614l0.656831-34.812059c0-9.195638 7.225144-16.420783 15.763951-16.420783z" fill="#E83828" p-id="4500"></path></svg>