<?xml version="1.0" standalone="no"?><!DOCTYPE svg PUBLIC "-//W3C//DTD SVG 1.1//EN" "http://www.w3.org/Graphics/SVG/1.1/DTD/svg11.dtd"><svg t="1702707181248" class="icon" viewBox="0 0 1024 1024" version="1.1" xmlns="http://www.w3.org/2000/svg" p-id="17093" xmlns:xlink="http://www.w3.org/1999/xlink" width="200" height="200"><path d="M704.32 974.4H321.81333333c-77.54666667 0-150.61333333-30.4-205.76-85.54666667S30.50666667 760.64 30.50666667 683.2v-0.42666667c0-77.54666667 30.4-150.61333333 85.54666666-205.76C171.2 421.86666667 244.26666667 391.46666667 321.81333333 391.46666667h382.61333334c77.54666667 0 150.61333333 30.4 205.76 85.54666666 55.14666667 55.14666667 85.54666667 128.21333333 85.54666666 205.76v0.42666667c0 77.54666667-30.4 150.61333333-85.54666666 205.76s-128.32 85.44-205.86666667 85.44zM321.81333333 466.24c-119.36 0-216.53333333 97.17333333-216.53333333 216.53333333v0.42666667c0 119.36 97.17333333 216.53333333 216.53333333 216.53333333h382.61333334c119.36 0 216.53333333-97.17333333 216.53333333-216.53333333v-0.42666667c0-119.36-97.17333333-216.53333333-216.53333333-216.53333333H321.81333333z" fill="#ac4cfd" p-id="17094"></path><path d="M263.89333333 655.68H412.8v57.38666667H263.89333333z" fill="#ac4cfd" p-id="17095"></path><path d="M311.11466667 756.24106667l0.35093333-148.90666667 57.38666667 0.1344-0.352 148.90666667zM682.77333333 764.69333333c-45.65333333 0-82.88-37.12-82.88-82.88s37.12-82.88 82.88-82.88 82.88 37.12 82.88 82.88-37.12 82.88-82.88 82.88z m0-117.65333333c-19.2 0-34.88 15.68-34.88 34.88s15.68 34.88 34.88 34.88 34.88-15.68 34.88-34.88-15.57333333-34.88-34.88-34.88zM545.70666667 463.78666667L488.53333333 432.74666667l100.05333334-184.42666667H385.81333333l-27.84-49.38666667 86.4-143.36 55.78666667 33.49333334-56.74666667 94.18666666h199.89333334l28.58666666 48z" fill="#ac4cfd" p-id="17096"></path></svg>