<?xml version="1.0" standalone="no"?><!DOCTYPE svg PUBLIC "-//W3C//DTD SVG 1.1//EN" "http://www.w3.org/Graphics/SVG/1.1/DTD/svg11.dtd"><svg t="1710909822806" class="icon" viewBox="0 0 1024 1024" version="1.1" xmlns="http://www.w3.org/2000/svg" p-id="4532" xmlns:xlink="http://www.w3.org/1999/xlink" width="200" height="200"><path d="M283.76 402.54c-10.38 0-18.78 8.4-18.78 18.78v21.18c0 10.36 8.4 18.76 18.78 18.76 10.36 0 18.76-8.4 18.76-18.76v-21.18c0-10.38-8.39-18.78-18.76-18.78zM171.15 458.65c-10.36 0-18.76 8.4-18.76 18.76v22.2c0 10.36 8.4 18.76 18.76 18.76 10.38 0 18.78-8.4 18.78-18.76v-22.2c0-10.37-8.4-18.76-18.78-18.76zM734.14 402.54c-10.38 0-18.78 8.4-18.78 18.78v21.18c0 10.36 8.4 18.76 18.78 18.76 10.36 0 18.76-8.4 18.76-18.76v-21.18c0-10.38-8.39-18.78-18.76-18.78zM846.74 458.65c-10.38 0-18.78 8.4-18.78 18.76v22.2c0 10.36 8.4 18.76 18.78 18.76 10.36 0 18.76-8.4 18.76-18.76v-22.2c0-10.37-8.4-18.76-18.76-18.76z" fill="#CCD1D9" p-id="4533"></path><path d="M77.34 659.8a18.8 18.8 0 0 1-18.78-18.78v-75.06c0-7.07 3.99-13.54 10.28-16.74L425.4 368.37c9.24-4.69 20.53-1 25.22 8.24 4.69 9.24 0.99 20.53-8.24 25.22l-7.82 145.75c10.14-2.1 20.08 4.41 22.2 14.56 2.1 10.14-4.41 20.08-14.56 22.2L81.15 659.4c-1.26 0.26-2.55 0.4-3.81 0.4zM940.56 659.8c-1.26 0-2.54-0.14-3.82-0.4L575.7 584.34c-10.14-2.12-16.66-12.05-14.56-22.2 2.12-10.14 12.05-16.66 22.2-14.56l-7.82-145.75c-9.24-4.69-12.93-15.98-8.24-25.22 4.69-9.25 15.98-12.93 25.24-8.24l356.55 180.85c6.31 3.2 10.28 9.67 10.28 16.74v75.06c0 5.65-2.54 10.99-6.93 14.56a18.844 18.844 0 0 1-11.86 4.22z" fill="#E6E9ED" p-id="4534"></path><path d="M455.85 718.09c-6.17-3.09-13.54-2.57-19.19 1.39L329.3 794.54a18.79 18.79 0 0 0-8.01 15.38v75.07c0 6.05 2.91 11.72 7.83 15.24a18.76 18.76 0 0 0 16.96 2.53l110.64-37.54a18.768 18.768 0 0 0 12.73-18.32l-3.28-112.59c-0.2-6.89-4.17-13.13-10.32-16.22zM688.59 794.54l-107.36-75.06a18.784 18.784 0 0 0-19.19-1.39 18.735 18.735 0 0 0-10.32 16.22l-3.29 112.59c-0.25 8.24 4.92 15.67 12.73 18.32l110.64 37.54c1.97 0.66 4 0.99 6.02 0.99 3.88 0 7.71-1.2 10.94-3.52 4.92-3.52 7.83-9.2 7.83-15.24v-75.07c0.02-6.12-2.98-11.87-8-15.38z" fill="#4A89DC" p-id="4535"></path><path d="M564.38 903.75H451.79c-10.14 0-18.44-8.05-18.75-18.2-0.77-25.3-18.78-619.99-18.78-657.37 0-23.48 8.89-54.68 22.67-79.48 18.58-33.45 43.86-51.87 71.15-51.87 27.31 0 52.59 18.42 71.16 51.87 13.77 24.81 22.68 56.01 22.68 79.48 0 37.38-18 632.07-18.78 657.37-0.3 10.15-8.61 18.2-18.76 18.2z" fill="#5D9CEC" p-id="4536"></path><path d="M563.18 221.54c-0.82-2.17-4.18-9.83-12.82-17.11-7.48-6.28-20.88-13.79-42.27-13.79-34.27 0-50.74 19.42-55.09 30.9-3.66 9.7 1.24 20.53 10.93 24.19 2.18 0.82 4.42 1.22 6.62 1.22 7.31 0 14.21-4.3 17.25-11.35 0.66-1.15 4.96-7.42 20.29-7.42 15.34 0 19.64 6.27 20.3 7.42 3.95 9.17 14.45 13.69 23.88 10.13 9.68-3.67 14.57-14.5 10.91-24.19z" fill="#F5F7FA" p-id="4537"></path><path d="M508.09 922.51c-10.36 0-18.76-8.4-18.76-18.76V772.39c0-10.36 8.4-18.78 18.76-18.78 10.36 0 18.78 8.41 18.78 18.78v131.36c-0.01 10.36-8.42 18.76-18.78 18.76z" fill="#4A89DC" p-id="4538"></path></svg>