<?xml version="1.0" standalone="no"?><!DOCTYPE svg PUBLIC "-//W3C//DTD SVG 1.1//EN" "http://www.w3.org/Graphics/SVG/1.1/DTD/svg11.dtd"><svg t="1702707060475" class="icon" viewBox="0 0 1024 1024" version="1.1" xmlns="http://www.w3.org/2000/svg" p-id="13932" xmlns:xlink="http://www.w3.org/1999/xlink" width="200" height="200"><path d="M766.208 958.336H269.696c-112.768 0-204.032-91.392-204.032-204.032V257.792c0-112.64 91.264-204.032 204.032-204.032h496.512c112.64 0 204.032 91.392 204.032 204.032v496.512c0 112.768-91.392 204.032-204.032 204.032z" fill="#FF9429" p-id="13933"></path><path d="M705.408 743.04c-1.664-10.624-3.84-20.992-6.272-30.976-1.152-4.736-2.688-9.216-4.096-13.824-1.792-6.016-3.456-12.032-5.632-17.792-1.92-5.248-3.968-10.112-6.144-15.232-2.048-4.736-3.968-9.6-6.144-14.208-2.432-5.12-5.12-10.112-7.808-14.976-2.176-3.968-4.48-7.936-6.784-11.776-2.944-4.864-6.144-9.472-9.344-14.08-2.432-3.456-4.864-6.656-7.424-9.856-3.456-4.352-7.04-8.704-10.752-12.8-2.688-2.816-5.376-5.504-8.064-8.192-3.84-3.84-7.808-7.552-11.904-11.008-2.944-2.432-6.016-4.48-8.96-6.656-4.224-3.072-8.32-6.272-12.672-8.832-0.256-0.128-0.512-0.384-0.768-0.512-13.312-7.936-21.376-22.016-21.376-37.504v-17.536c0-15.488 8.192-29.568 21.376-37.504 0.256-0.128 0.512-0.384 0.768-0.512 4.352-2.688 8.448-5.76 12.672-8.832 3.072-2.176 6.016-4.224 8.96-6.656 4.096-3.456 7.936-7.168 11.904-11.008 2.688-2.688 5.504-5.376 8.192-8.192 3.712-4.096 7.296-8.32 10.752-12.672 2.56-3.2 4.992-6.528 7.424-9.856 3.2-4.48 6.4-9.216 9.344-14.08 2.432-3.84 4.608-7.808 6.784-11.776 2.688-4.864 5.376-9.856 7.808-14.976 2.176-4.608 4.224-9.344 6.144-14.208 2.048-4.992 4.224-9.984 6.144-15.232 2.048-5.76 3.84-11.776 5.632-17.792 1.408-4.608 2.944-9.088 4.096-13.824 2.56-10.112 4.608-20.48 6.272-30.976 0.128-0.896 0.384-1.664 0.512-2.56 4.096-26.752-16.384-51.072-43.52-51.072H373.376c-27.136 0-47.616 24.32-43.52 51.072 0.128 0.896 0.384 1.664 0.512 2.56 1.664 10.624 3.84 20.992 6.272 31.104 1.152 4.736 2.688 9.216 4.096 13.824 1.792 6.016 3.456 12.032 5.632 17.792 1.92 5.248 3.968 10.112 6.144 15.232 2.048 4.736 3.968 9.6 6.144 14.208 2.432 5.12 5.12 10.112 7.808 14.976 2.176 3.968 4.48 7.936 6.784 11.776 2.944 4.864 6.144 9.472 9.344 14.08 2.432 3.456 4.864 6.656 7.424 9.856 3.456 4.352 7.04 8.704 10.752 12.672 2.688 2.816 5.376 5.504 8.192 8.192 3.84 3.84 7.808 7.552 11.904 11.008 2.944 2.432 6.016 4.48 8.96 6.656 4.224 3.072 8.32 6.272 12.672 8.832 0.256 0.128 0.512 0.384 0.768 0.512 13.312 7.936 21.376 22.016 21.376 37.504v17.536c0 15.488-8.192 29.568-21.376 37.504-0.256 0.128-0.512 0.384-0.768 0.512-4.352 2.688-8.448 5.76-12.672 8.832-2.944 2.176-6.016 4.224-8.96 6.656-4.096 3.456-7.936 7.168-11.904 11.008-2.688 2.688-5.504 5.248-8.064 8.192-3.712 4.096-7.296 8.32-10.752 12.8-2.56 3.2-4.992 6.528-7.424 9.856-3.2 4.608-6.4 9.216-9.344 14.08-2.304 3.84-4.608 7.808-6.784 11.776-2.688 4.864-5.376 9.856-7.808 14.976-2.176 4.608-4.224 9.344-6.144 14.208-2.048 4.992-4.224 9.984-6.144 15.232-2.048 5.76-3.84 11.776-5.632 17.792-1.408 4.608-2.944 9.088-4.096 13.824-2.56 10.112-4.608 20.48-6.272 31.104-0.128 0.896-0.384 1.664-0.512 2.56-4.096 26.752 16.384 51.072 43.52 51.072h289.024c27.136 0 47.616-24.32 43.52-51.072-0.256-1.024-0.512-1.92-0.64-2.816z" fill="#FFFFFF" p-id="13934"></path><path d="M415.872 755.712h204.16c7.68 0 11.264-9.728 5.248-14.592l-93.952-73.216c-1.92-1.536-2.944-3.84-2.944-6.4V425.856c0-2.304 1.024-4.48 2.688-6.016l55.936-45.952c5.504-5.12 1.92-14.336-5.632-14.336H454.4c-7.552 0-11.136 9.216-5.632 14.336l55.296 45.696c1.664 1.536 2.688 3.712 2.688 6.016v235.648c0 2.432-1.152 4.736-2.944 6.4L410.496 741.12c-5.888 4.992-2.432 14.592 5.376 14.592z" fill="#FF9429" p-id="13935"></path></svg>