<?xml version="1.0" standalone="no"?><!DOCTYPE svg PUBLIC "-//W3C//DTD SVG 1.1//EN" "http://www.w3.org/Graphics/SVG/1.1/DTD/svg11.dtd"><svg t="1704264915284" class="icon" viewBox="0 0 1024 1024" version="1.1" xmlns="http://www.w3.org/2000/svg" p-id="4252" xmlns:xlink="http://www.w3.org/1999/xlink" width="200" height="200"><path d="M343.237134 298.375672S278.180454 166.043694 0 236.971177c0 0 177.557635 125.778524 343.237134 61.404495z m1.774894-47.683201C382.318928 113.581933 237.90402 27.12413 237.90402 27.12413c-8.294215 160.969205 107.108008 223.56834 107.108008 223.568341z m411.297481 551.411685s-33.72298 53.042015-17.134551 102.534243C755.695123 953.516241 857.512582 989.867429 857.512582 989.867429s-17.748937-36.351188 17.168683-85.22903c34.91762-48.911974 0-102.534243 0-102.534243H756.377774z m-329.618238-180.629566l-73.965282 44.713668c-4.744427 2.969534-11.844002 1.19464-11.844002-5.9732l-1.19464-330.232625c0-7.16784-4.710295-10.75176-9.454722-7.748094-11.844002 4.77856-85.809284 32.187014-90.553711 32.187015h-100.008433c-10.649362 0-8.874468 7.748094-5.939068 14.881801h92.942991c4.710295 0 7.679828 3.003666 7.679829 7.748094V733.53182c0 14.915934-40.822555 17.885467-31.367833 32.767269l68.060347 107.927189c7.099575 11.9464 18.329191-1.19464 19.52383-25.053307 0-1.19464 1.19464-2.969534 1.774894-4.164174l144.380775-211.62194c5.939067-6.553454-2.355147-15.496187-10.034975-11.9464z m588.855115-292.686797h-276.371428c-4.744427 0-7.713961-3.003666-7.713961-7.748094V173.177402c0-4.77856 2.969534-7.748094 7.713961-7.748094h223.704871c4.130041-7.16784 2.935401-14.881801-4.77856-14.881801h-218.346057c-4.744427 0-7.679828-3.003666-7.679828-7.748094 0-120.419711-4.77856-70.961615 19.52383-98.984456 4.744427-4.77856 15.359657-17.851335 1.160508-20.820868L623.158349 0.295929c-5.904935-1.19464-8.874468 1.19464-8.874468 7.748094v133.526618c0 4.77856-2.935401 7.748094-7.679828 7.748094h-156.224778c-8.874468 0-8.874468 7.748094-4.77856 14.881801h161.003338c4.744427 0 7.679828 3.003666 7.679828 7.748093V319.845059c0 4.77856-2.935401 7.748094-7.679828 7.748094h-178.718142c-10.649362 0-9.488855 16.690827 1.160507 16.690827h586.499968c10.649362 1.19464 11.844002-15.496187 0-15.496187z m-512.500554 209.232661c-7.099575-1.19464-11.844002 5.939067-8.874468 10.717627 27.203659 59.049348 49.697023 117.416044 61.541025 177.660032 1.160507 4.77856 4.130041 7.16784 8.874469 5.939067 48.536516-7.748094 94.683752-32.187014 87.003923-90.007589-8.294215-68.538203-89.973457-90.621976-148.544949-104.309137z m508.33638-45.908309h-129.021118c-4.710295 0-7.065442-2.38928-7.679829-7.167839v-41.710002l5.324682-15.496187c3.549787-1.809026 9.488855-4.77856 18.363323-14.33568 7.679828-7.713961 11.844002-16.656695 1.160507-19.660361l-7.679828-1.19464v-0.580254l-31.948087-4.164174-93.523244-13.721293a8.191817 8.191817 0 0 0-6.485189 1.19464l-3.549787-0.614386v110.282337c-0.614386 3.58392-3.58392 5.9732-7.713961 5.9732h-330.812879c-8.874468 0-8.874468 8.942734-5.904935 13.721293h336.717814c4.130041 0 7.099575 2.38928 7.713961 5.939067v261.114169l118.337623 0.580254v-259.305143c0.614386-4.164174 2.969534-7.16784 7.713962-7.16784h133.731413c4.130041-4.744427 2.969534-13.687161-4.744428-13.687161z" fill="#E07C34" p-id="4253"></path></svg>