<?xml version="1.0" standalone="no"?><!DOCTYPE svg PUBLIC "-//W3C//DTD SVG 1.1//EN" "http://www.w3.org/Graphics/SVG/1.1/DTD/svg11.dtd"><svg t="1704265022590" class="icon" viewBox="0 0 1024 1024" version="1.1" xmlns="http://www.w3.org/2000/svg" p-id="6908" xmlns:xlink="http://www.w3.org/1999/xlink" width="200" height="200"><path d="M201.6 603.5C99 506.7 308.5 160.5 709.4 244.9c369.1 77.7-98 629.9-242.8 536.4-113.4-73.2 29-160.4-58.2-180.5-65.7-15.2-142.7 63.2-206.8 2.7z" fill="#E0F4F6" p-id="6909"></path><path d="M505.6 801.6c-16.8 0-31.6-4-44.2-12.1-68.4-44.1-51.2-96.2-39.8-130.7 5.3-15.9 9.8-29.7 5.5-37.4-2.7-4.8-9.7-8.6-20.8-11.1-23.8-5.5-50 2.8-77.8 11.6-42.6 13.5-90.9 28.9-133.5-11.3-38-35.9-38.6-102.1-1.6-172.8 70.6-135.1 262.9-256.1 518-202.3 102.9 21.7 134.8 78.5 143.5 122.4 24.6 125.2-103 310.6-232.9 398.7-44 29.8-83.8 45-116.4 45zM390.2 589.1c6.9 0 13.7 0.7 20.5 2.2 16.8 3.9 27.7 10.6 33.3 20.5 8.5 15.2 2.5 33.5-3.9 53-11.7 35.6-23.9 72.3 31.9 108.4 29.7 19.1 80.4 7.2 139.3-32.7C735.8 656 858.4 476 835.9 361.6 825 306.1 781.8 270 707.4 254.4c-245.3-51.6-429.6 63.5-497 192.4-32.3 61.7-33.2 120.5-2.2 149.7 34.3 32.4 73.2 20 114.4 6.9 22.3-7 45.1-14.3 67.6-14.3z" fill="#603813" p-id="6910"></path><path d="M508.590607 698.900894a35.7 48.1 44.999 1 0 68.022485-68.02486 35.7 48.1 44.999 1 0-68.022485 68.02486Z" fill="#FFFFFF" p-id="6911"></path><path d="M530.3 716.8c-10.9 0-21.1-3.6-28.5-11.1-17.7-17.7-13.8-50.4 8.7-72.9 22.5-22.5 55.2-26.4 72.9-8.7 17.7 17.7 13.8 50.4-8.7 73-13 12.9-29.4 19.7-44.4 19.7z m24.6-84.6c-9.9 0-21.5 5-30.7 14.2-14.7 14.7-18.7 35.6-8.7 45.6s30.9 6 45.6-8.7c14.7-14.7 18.7-35.6 8.7-45.6-3.8-3.7-9-5.5-14.9-5.5z" fill="#603813" p-id="6912"></path><path d="M327.581215 478.097572a48.5 36 23.068 1 0 28.21128-66.242915 48.5 36 23.068 1 0-28.21128 66.242915Z" fill="#3ACC88" p-id="6913"></path><path d="M351.6 492.8c-9.2 0-18.7-2-27.8-5.8-13.8-5.9-25.2-15.5-32-27.1-7.3-12.6-8.6-25.9-3.6-37.7 9.9-23.2 41.9-31.8 71.4-19.3 13.8 5.9 25.2 15.5 32 27.2 7.3 12.6 8.6 25.9 3.6 37.7-5 11.7-15.5 20.1-29.7 23.5-4.4 1-9.1 1.5-13.9 1.5z m-19.7-76.4c-12 0-22.2 4.7-25.9 13.3-2.5 6-1.6 13.2 2.5 20.3 4.7 8.1 12.8 14.9 22.8 19.1 10 4.3 20.5 5.4 29.6 3.2 8-1.9 13.9-6.3 16.4-12.3 2.5-6 1.6-13.2-2.5-20.3-4.7-8.1-12.8-14.9-22.8-19.1-6.7-2.8-13.7-4.2-20.1-4.2z" fill="#603813" p-id="6914"></path><path d="M440.290504 377.086206a48.5 36 73.276 1 0 68.954547-20.718843 48.5 36 73.276 1 0-68.954547 20.718843Z" fill="#F9C933" p-id="6915"></path><path d="M480.8 424c-8.9 0-18-3.2-26.3-9.4-10.8-8-19.1-20.4-23.5-34.8-9.2-30.7 2.9-61.6 27-68.8 24.1-7.3 51.3 11.8 60.5 42.5 4.3 14.4 4.2 29.3-0.4 41.9-5 13.7-14.4 23.2-26.6 26.9-3.5 1.2-7.1 1.7-10.7 1.7z m-12.1-95.1c-1.7 0-3.4 0.2-5.1 0.7-13.7 4.1-20.1 24.6-14.1 44.8 3.1 10.4 9 19.2 16.5 24.8 6.6 4.9 13.7 6.6 19.9 4.8 6.2-1.9 11.2-7.2 14-15 3.2-8.8 3.2-19.4 0.1-29.8-5.2-17.7-18.8-30.3-31.3-30.3z" fill="#603813" p-id="6916"></path><path d="M672.897577 407.938424a36 48.5 17.122 1 0 28.557508-92.700964 36 48.5 17.122 1 0-28.557508 92.700964Z" fill="#E9440B" p-id="6917"></path><path d="M680.8 418.8c-3.6 0-7.2-0.5-10.8-1.6-24.1-7.4-36-38.4-26.6-69 9.4-30.6 36.8-49.5 60.8-42.1 24.1 7.4 36 38.4 26.6 69-8 26.1-29 43.7-50 43.7z m12.6-95c-12.5 0-26 12.5-31.4 30.1-6.2 20.1 0.1 40.6 13.8 44.8 13.7 4.3 30.4-9.2 36.6-29.3 6.2-20.1-0.1-40.6-13.8-44.8-1.7-0.6-3.4-0.8-5.2-0.8z" fill="#603813" p-id="6918"></path></svg>