<?xml version="1.0" standalone="no"?><!DOCTYPE svg PUBLIC "-//W3C//DTD SVG 1.1//EN" "http://www.w3.org/Graphics/SVG/1.1/DTD/svg11.dtd"><svg t="1702706959345" class="icon" viewBox="0 0 1083 1024" version="1.1" xmlns="http://www.w3.org/2000/svg" p-id="12869" xmlns:xlink="http://www.w3.org/1999/xlink" width="211.5234375" height="200"><path d="M316.506063 790.023674a319.072464 319.072464 0 1 0 450.337899-452.133526 319.072464 319.072464 0 1 0-450.337899 452.133526Z" fill="#E9EAEB" p-id="12870"></path><path d="M1009.15942 452.637681h-59.362319v-29.681159h29.68116v-252.289855h-29.68116v-29.68116h59.362319zM920.115942 482.318841h-59.362319v-29.68116h29.68116v-311.652174h-29.68116v-29.681159h59.362319zM133.565217 452.637681H74.202899v-311.652174h59.362318v29.68116H103.884058v252.289855h29.681159zM222.608696 482.318841h-59.362319v-371.014493h59.362319v29.681159h-29.68116v311.652174h29.68116z" fill="#2A5082" p-id="12871"></path><path d="M267.130435 96.463768h549.101449v400.695652H267.130435z" fill="#FFFFFF" p-id="12872"></path><path d="M831.072464 512H252.289855v-430.376812h578.782609v430.376812z m-549.10145-29.681159h519.42029v-371.014493H281.971014v371.014493z" fill="#2A5082" p-id="12873"></path><path d="M682.666667 215.188406m-44.521739 0a44.521739 44.521739 0 1 0 89.043478 0 44.521739 44.521739 0 1 0-89.043478 0Z" fill="#A3D4FF" p-id="12874"></path><path d="M682.666667 274.550725c-32.649275 0-59.362319-26.713043-59.362319-59.362319s26.713043-59.362319 59.362319-59.362319 59.362319 26.713043 59.362319 59.362319-26.713043 59.362319-59.362319 59.362319z m0-89.043479c-16.324638 0-29.681159 13.356522-29.68116 29.68116s13.356522 29.681159 29.68116 29.681159 29.681159-13.356522 29.681159-29.681159-13.356522-29.681159-29.681159-29.68116z" fill="#2A5082" p-id="12875"></path><path d="M623.304348 319.072464L571.362319 371.014493 460.057971 259.710145l-192.927536 192.927536v44.521739h534.260869z" fill="#A3D4FF" p-id="12876"></path><path d="M837.008696 512H252.289855v-65.298551l207.768116-207.768116 111.304348 111.304348 51.942029-51.942029 213.704348 213.704348z m-555.037682-29.681159h483.802899L623.304348 339.849275 592.13913 371.014493l41.553624 41.553623-20.776812 20.776812L460.057971 280.486957l-178.086957 178.086956v23.744928z" fill="#2A5082" p-id="12877"></path><path d="M652.985507 601.043478h-29.681159c0-16.324638-16.324638-29.681159-29.68116-29.681159h-29.681159c-5.936232-8.904348-20.776812-14.84058-29.681159-14.84058h-29.68116v-118.724638c0-16.324638-13.356522-29.681159-29.681159-29.681159s-29.681159 13.356522-29.68116 29.681159v207.768116l-19.292753 19.292754-38.585508-60.846377c-23.744928-32.649275-60.846377-14.84058-60.846376 0 0 0 44.521739 143.953623 51.942029 154.342029 10.388406 16.324638 51.942029 53.426087 51.942029 65.298551v59.362319h222.608695v-44.521739c0-19.292754 29.681159-44.521739 29.68116-74.202899v-133.565217c0-16.324638-16.324638-29.681159-29.68116-29.68116z" fill="#FFFFFF" p-id="12878"></path><path d="M667.826087 897.855072H415.536232v-72.71884c-2.968116-5.936232-17.808696-20.776812-26.713044-31.165218-10.388406-10.388406-19.292754-20.776812-23.744927-28.197101-5.936232-10.388406-35.617391-102.4-53.426087-157.310145v-4.452174c0-13.356522 10.388406-25.228986 26.713043-31.165217 17.808696-5.936232 41.553623-2.968116 59.362319 22.260869l29.68116 46.005797 2.968116-1.484057V437.797101c0-25.228986 19.292754-44.521739 44.521739-44.521739s44.521739 19.292754 44.521739 44.521739v103.884058h14.84058c11.872464 0 26.713043 5.936232 37.101449 14.84058H593.623188c16.324638 0 35.617391 11.872464 41.553624 29.68116H652.985507c20.776812 0 44.521739 17.808696 44.521739 44.521739v133.565217c0 20.776812-10.388406 38.585507-19.292753 51.942029-4.452174 7.42029-10.388406 17.808696-10.388406 22.26087v59.362318z m-222.608696-29.681159h192.927537v-29.681159c0-13.356522 7.42029-25.228986 14.840579-37.10145s14.84058-23.744928 14.84058-37.101449v-133.565217c0-8.904348-8.904348-14.84058-14.84058-14.84058h-44.521739v-14.84058c0-8.904348-8.904348-14.84058-14.84058-14.840579h-37.101449l-4.452174-7.42029c-2.968116-2.968116-11.872464-7.42029-17.808695-7.42029h-14.84058v29.681159h-29.68116v-163.246377c0-8.904348-5.936232-14.84058-14.840579-14.840579s-14.84058 5.936232-14.84058 14.840579v213.704348l-37.101449 35.617392-48.973913-75.686957c-5.936232-7.42029-13.356522-11.872464-20.776812-11.872464-4.452174 0-8.904348 2.968116-10.388406 4.452174 20.776812 65.298551 44.521739 138.017391 48.973913 145.437681 2.968116 4.452174 11.872464 13.356522 20.776812 23.744928 22.26087 23.744928 34.133333 37.101449 34.133333 50.457971v44.521739z" fill="#2A5082" p-id="12879"></path><path d="M549.101449 571.362319h29.68116v44.521739h-29.68116zM608.463768 601.043478h29.68116v29.68116h-29.68116z" fill="#2A5082" p-id="12880"></path><path d="M400.695652 868.173913h281.971015v74.202899H400.695652z" fill="#E9EAEB" p-id="12881"></path><path d="M697.507246 942.376812h-29.681159v-59.362319H415.536232v59.362319h-29.68116v-89.043479h311.652174z" fill="#2A5082" p-id="12882"></path><path d="M445.217391 912.695652h44.521739v29.68116h-44.521739z" fill="#2A5082" p-id="12883"></path></svg>