<?xml version="1.0" standalone="no"?><!DOCTYPE svg PUBLIC "-//W3C//DTD SVG 1.1//EN" "http://www.w3.org/Graphics/SVG/1.1/DTD/svg11.dtd"><svg t="1702707131377" class="icon" viewBox="0 0 1024 1024" version="1.1" xmlns="http://www.w3.org/2000/svg" p-id="15082" xmlns:xlink="http://www.w3.org/1999/xlink" width="200" height="200"><path d="M672.85504 942.08512L115.14368 832.58368V289.59232l557.71136 95.91296z" fill="#5CB9FF" p-id="15083"></path><path d="M672.85504 960a17.8688 17.8688 0 0 1-3.45088-0.3328L111.6928 850.15552a17.90976 17.90976 0 0 1-14.45888-17.57696V289.59232a17.90464 17.90464 0 0 1 20.94592-17.65376L675.8912 367.85152a17.90976 17.90976 0 0 1 14.87872 17.65376v556.58496a17.92 17.92 0 0 1-17.91488 17.90976z m-539.8016-142.1568l521.89184 102.4768V400.59904L133.05344 310.85056v506.99264z" fill="" p-id="15084"></path><path d="M902.44096 666.1888l-229.58592 275.89632V385.50528l236.00128-224.67584z" fill="#FF5757" p-id="15085"></path><path d="M672.84992 960a17.91488 17.91488 0 0 1-17.90464-17.90976V385.50528c0-4.90496 2.00704-9.59488 5.56032-12.97408L896.512 147.85536a17.90976 17.90976 0 0 1 30.26432 13.19936l-6.42048 505.35936a17.93024 17.93024 0 0 1-4.14208 11.22304l-229.5808 275.90144a17.91488 17.91488 0 0 1-13.78304 6.46144z m17.92-566.81984v499.3792l193.83808-232.95488 5.80096-456.48384-199.63904 190.05952z m211.66592 273.00352h0.0512-0.0512z" fill="" p-id="15086"></path><path d="M672.85504 385.50528L115.14368 289.59232l283.8272-207.67744 509.88544 78.91456z" fill="#FFDD50" p-id="15087"></path><path d="M672.85504 403.41504a17.8176 17.8176 0 0 1-3.03104-0.26112L112.10752 307.24608a17.92 17.92 0 0 1-7.54176-32.10752l283.8272-207.68256a17.89952 17.89952 0 0 1 13.31712-3.24608l509.89056 78.91968a17.90464 17.90464 0 0 1 9.61024 30.67392L685.2096 398.47424a17.92 17.92 0 0 1-12.35456 4.9408zM159.81568 279.10144l507.2128 87.22432 203.1104-193.36192-466.57536-72.21248-243.74784 178.35008z" fill="" p-id="15088"></path><path d="M672.85504 588.94336c-1.05472 0-2.11968-0.09728-3.1744-0.28672L111.96928 488.2176a17.91488 17.91488 0 0 1 6.3488-35.25632l548.36224 98.75968 227.18976-232.7296a17.92 17.92 0 0 1 25.64096 25.02144l-233.8304 239.52896a17.92512 17.92512 0 0 1-12.8256 5.4016z" fill="" p-id="15089"></path><path d="M672.85504 774.46656c-1.1008 0-2.20672-0.1024-3.31264-0.31232L111.83104 669.18912a17.90976 17.90976 0 1 1 6.62528-35.20512l547.7376 103.0912 225.01888-253.67552a17.90976 17.90976 0 0 1 26.79808 23.77728l-231.75168 261.26848a17.92 17.92 0 0 1-13.40416 6.02112z" fill="" p-id="15090"></path><path d="M301.04576 886.99392a17.91488 17.91488 0 0 1-17.90976-17.90976V321.5616c0-5.66784 2.68288-10.99776 7.22944-14.37696l283.83232-210.87744a17.92 17.92 0 0 1 21.36064 28.75904L318.95552 330.56768v538.51648a17.90976 17.90976 0 0 1-17.90976 17.90976z" fill="" p-id="15091"></path><path d="M486.95296 923.49952a17.91488 17.91488 0 0 1-17.90976-17.90976V353.53088c0-5.62176 2.6368-10.91584 7.12704-14.30016l283.8272-214.07232a17.91488 17.91488 0 0 1 21.57056 28.60544L504.86272 362.46016v543.1296a17.91488 17.91488 0 0 1-17.90976 17.90976z" fill="" p-id="15092"></path><path d="M757.5552 858.20928a17.91488 17.91488 0 0 1-17.90976-17.90976V320.24064L206.58176 238.39744a17.90976 17.90976 0 1 1 5.43744-35.40992l548.25472 84.1728a17.90976 17.90976 0 0 1 15.19104 17.70496V840.2944a17.90976 17.90976 0 0 1-17.90976 17.91488z" fill="" p-id="15093"></path><path d="M832.3072 768.384a17.91488 17.91488 0 0 1-17.90976-17.90976V249.04192l-513.024-80.04096a17.90976 17.90976 0 0 1-14.93504-20.45952 17.8944 17.8944 0 0 1 20.45952-14.93504L835.072 216.0128a17.91488 17.91488 0 0 1 15.15008 17.69472v516.7616a17.92 17.92 0 0 1-17.91488 17.91488z" fill="" p-id="15094"></path></svg>