<?xml version="1.0" standalone="no"?><!DOCTYPE svg PUBLIC "-//W3C//DTD SVG 1.1//EN" "http://www.w3.org/Graphics/SVG/1.1/DTD/svg11.dtd"><svg t="1702707363551" class="icon" viewBox="0 0 1024 1024" version="1.1" xmlns="http://www.w3.org/2000/svg" p-id="4731" xmlns:xlink="http://www.w3.org/1999/xlink" width="200" height="200"><path d="M908.288 794.624l-305.664-305.664c-50.176-50.176-131.072-50.176-180.736 0l-305.664 305.664c-80.384 80.384-23.552 218.112 90.624 218.112h611.328c113.152 0.512 170.496-137.216 90.112-218.112z" fill="#09C58F" p-id="4732"></path><path d="M858.112 499.712l-267.264-267.264c-43.52-43.52-114.176-43.52-158.208 0L165.888 499.712c-70.656 70.656-20.48 190.976 78.848 190.976h534.016c99.84-0.512 150.016-120.832 79.36-190.976z" fill="#09C58F" p-id="4733"></path><path d="M745.472 210.432L565.248 30.208C536.064 1.024 487.936 1.024 458.752 30.208L278.528 210.432c-47.616 47.616-13.824 128.512 53.248 128.512h359.936c67.584 0 100.864-81.408 53.76-128.512z" fill="#09C58F" p-id="4734"></path><path d="M414.208 338.944m-75.776 0a75.776 75.776 0 1 0 151.552 0 75.776 75.776 0 1 0-151.552 0Z" fill="#FCD684" p-id="4735"></path><path d="M671.232 563.712m-75.776 0a75.776 75.776 0 1 0 151.552 0 75.776 75.776 0 1 0-151.552 0Z" fill="#B975D4" p-id="4736"></path><path d="M353.792 827.904m-75.776 0a75.776 75.776 0 1 0 151.552 0 75.776 75.776 0 1 0-151.552 0Z" fill="#F55569" p-id="4737"></path></svg>