<?xml version="1.0" standalone="no"?><!DOCTYPE svg PUBLIC "-//W3C//DTD SVG 1.1//EN" "http://www.w3.org/Graphics/SVG/1.1/DTD/svg11.dtd"><svg t="1713422023137" class="icon" viewBox="0 0 1260 1024" version="1.1" xmlns="http://www.w3.org/2000/svg" p-id="12255" xmlns:xlink="http://www.w3.org/1999/xlink" width="246.09375" height="200"><path d="M942.22756422 414.64423089m-155.76923089 0a155.76923089 155.76923089 0 1 0 311.53846179 0 155.76923089 155.76923089 0 1 0-311.53846179 0Z" fill="#AFFCFE" p-id="12256"></path><path d="M1149.91987154 674.25961545c0 142.78846179-116.82692275 259.61538455-259.61538455 259.61538455H371.07371788C228.28525608 933.875 111.45833333 818.34615366 111.45833333 674.25961545c0-93.46153821 50.625-179.13461545 131.1057691-225.86538456-1.29807724-9.08653821-1.29807724-18.17307724-1.29807642-27.25961544C241.26602601 238.10576911 389.24679512 90.125 572.27564065 90.125 752.70833333 90.125 899.39102602 234.21153821 903.28525608 414.64423089c137.59615366 7.78846179 246.63461545 120.72115366 246.63461546 259.61538456z" fill="#2F77F1" p-id="12257"></path></svg>