<?xml version="1.0" standalone="no"?><!DOCTYPE svg PUBLIC "-//W3C//DTD SVG 1.1//EN" "http://www.w3.org/Graphics/SVG/1.1/DTD/svg11.dtd"><svg t="1702705997052" class="icon" viewBox="0 0 1024 1024" version="1.1" xmlns="http://www.w3.org/2000/svg" p-id="4939" xmlns:xlink="http://www.w3.org/1999/xlink" width="200" height="200"><path d="M514.6 454.5l15.5 32.6c0.6 1.2 1.7 2 3 2.2l35 5.3c3.2 0.5 4.5 4.4 2.2 6.8l-25.5 25.8c-0.9 0.9-1.3 2.2-1.1 3.5l6 36.2c0.5 3.3-2.9 5.8-5.9 4.2l-31-16.9a3.7 3.7 0 0 0-3.8 0l-31 16.9c-2.9 1.6-6.4-0.9-5.9-4.2l6-36.2c0.2-1.3-0.2-2.6-1.1-3.5l-25.5-25.8c-2.3-2.3-1-6.3 2.2-6.8l35-5.3c1.3-0.2 2.4-1 3-2.2l15.5-32.6c1.6-3 5.9-3 7.4 0z" fill="#EFC100" p-id="4940"></path><path d="M534.3 308.3c0 11-14 99-20 123-9-37-20-112-20-123s9-20 20-20 20 9 20 20zM298 498.2c11 0 99 14 123 20-37 9-112 20-123 20s-20-9-20-20 8.9-20 20-20zM534.3 715.3c0-11-14-99-20-123-9 37-20 112-20 123s9 20 20 20 20-8.9 20-20zM724 498.2c-11 0-99 14-123 20 37 9 112 20 123 20s20-9 20-20-9-20-20-20z" fill="#D80000" p-id="4941"></path><path d="M362.2 325.9C371 334.7 430 416 444.4 440c-36.7-22.3-105.3-73.4-114.1-82.2-8.8-8.8-8.8-23.1 0-31.9 8.8-8.8 23.1-8.8 31.9 0zM325.1 665.9c8.8-8.8 90.1-67.8 114.1-82.2-22.3 36.7-73.4 105.3-82.2 114.1-8.8 8.8-23.1 8.8-31.9 0-8.8-8.8-8.8-23.1 0-31.9zM686.8 650.6c-8.8-8.8-90.1-67.8-114.1-82.2 22.3 36.7 73.4 105.3 82.2 114.1 8.8 8.8 23.1 8.8 31.9 0 8.9-8.8 8.9-23.1 0-31.9zM664.9 326.1c-8.8 8.8-67.8 90.1-82.2 114.1 36.7-22.3 105.3-73.4 114.1-82.2 8.8-8.8 8.8-23.1 0-31.9-8.8-8.9-23.1-8.9-31.9 0z" fill="#D80000" p-id="4942"></path><path d="M410.5 183.4c7.9 16.9 49.3 161.6 57.2 202.7-40.2-50.3-110.5-157.2-118.4-174.1-7.9-16.9-0.6-37 16.3-44.9 16.9-7.9 37-0.6 44.9 16.3zM184.2 643c16.9-7.9 161.6-49.3 202.7-57.2-50.3 40.2-157.2 110.5-174.1 118.4s-37 0.6-44.9-16.3-0.6-37.1 16.3-44.9zM701.2 806.8c-7.9-16.9-92.1-141.6-118.5-174.1 12.6 63.1 49.3 185.7 57.2 202.7s28 24.2 44.9 16.3 24.3-28 16.4-44.9zM836.6 338.7c-16.9 7.9-141.6 92.1-174.1 118.5 63.1-12.6 185.7-49.3 202.7-57.2s24.2-28 16.3-44.9-28-24.3-44.9-16.4z" fill="#D80000" p-id="4943"></path><path d="M159.5 333.2c19.8 7.2 168.2 89.6 207.3 116-72.1-8-213.6-37.2-233.4-44.4-19.8-7.2-30-29.1-22.8-48.9 7.2-19.7 29.1-29.9 48.9-22.7zM345.5 880.4c7.2-19.8 89.6-168.2 116-207.3-8 72.1-37.2 213.6-44.4 233.4-7.2 19.8-29.1 30-48.9 22.8-19.7-7.3-29.9-29.1-22.7-48.9zM888.6 598.6c-19.8-7.2-186.5-39.5-233.4-44.4 60.4 40.2 187.5 108.8 207.3 116 19.8 7.2 41.7-3 48.9-22.8 7.2-19.7-3-41.6-22.8-48.8zM623.3 117.2c-7.2 19.8-39.5 186.5-44.4 233.4 40.2-60.4 108.8-187.5 116-207.3s-3-41.7-22.8-48.9-41.6 3.1-48.8 22.8z" fill="#D80000" p-id="4944"></path><path d="M744 233.1l7.9 16 17.7 2.6-12.8 12.5 3 17.6-15.8-8.3-15.8 8.3 3-17.6-12.8-12.5 17.7-2.6zM156 509.6l8.3 16.9 18.7 2.7-13.5 13.2 3.2 18.5-16.7-8.7-16.7 8.7 3.2-18.5-13.5-13.2 18.7-2.7zM514.5 804.6l7.3 14.8 16.4 2.4-11.9 11.5 2.8 16.3-14.6-7.7-14.6 7.7 2.8-16.3-11.9-11.5 16.4-2.4zM468 134.1l8.8 17.8 19.6 2.9-14.2 13.8 3.4 19.6-17.6-9.3-17.6 9.3 3.4-19.6-14.2-13.8 19.6-2.9zM809.5 530.9l-6.6-5.9-8.7 2 3.6-8.1-4.6-7.5 8.8 0.9 5.8-6.7 1.8 8.6 8.2 3.4-7.7 4.5zM204.6 264.8l-9.9-0.5-6.1 7.9-2.6-9.6-9.4-3.3 8.3-5.4 0.3-10 7.7 6.2 9.6-2.8-3.6 9.3z" fill="#EFC100" p-id="4945"></path></svg>