<?xml version="1.0" standalone="no"?><!DOCTYPE svg PUBLIC "-//W3C//DTD SVG 1.1//EN" "http://www.w3.org/Graphics/SVG/1.1/DTD/svg11.dtd"><svg t="1712566886214" class="icon" viewBox="0 0 1024 1024" version="1.1" xmlns="http://www.w3.org/2000/svg" p-id="4867" xmlns:xlink="http://www.w3.org/1999/xlink" width="200" height="200"><path d="M494 64.2h22.5c1.9 0 3.5 1.5 3.5 3.5v888.6c0 1.9-1.5 3.5-3.5 3.5H494c-1.9 0-3.5-1.5-3.5-3.5V67.7c0-2 1.5-3.5 3.5-3.5z" fill="#3F63F6" p-id="4868"></path><path d="M667.9 477l15.9 15.9c1.4 1.4 1.4 3.5 0 4.9l-460.9 461c-1.4 1.4-3.5 1.4-4.9 0l-16-15.9c-1.4-1.4-1.4-3.5 0-4.9l461-461c1.3-1.3 3.5-1.3 4.9 0z" fill="#3F63F6" p-id="4869"></path><path d="M808 942.9l-15.9 15.9c-1.4 1.4-3.5 1.4-4.9 0l-461-460.9c-1.4-1.4-1.4-3.5 0-4.9l15.9-15.9c1.4-1.4 3.5-1.4 4.9 0L808 938c1.4 1.4 1.4 3.6 0 4.9z" fill="#3F63F6" p-id="4870"></path><path d="M91.9 124.7h826.6c3 0 5.5 2.5 5.5 5.5v29.5c0 3-2.5 5.5-5.5 5.5H91.9c-3 0-5.5-2.5-5.5-5.5v-29.5c0-3.1 2.5-5.5 5.5-5.5z" fill="#FFFFFF" p-id="4871"></path><path d="M914.2 174.1h-818c-10.3 0-18.7-8.4-18.7-18.7v-20.9c0-10.3 8.4-18.7 18.7-18.7h818c10.3 0 18.7 8.4 18.7 18.7v20.9c0 10.3-8.4 18.7-18.7 18.7z m-818-40.5c-0.5 0-0.8 0.4-0.8 0.9v20.9c0 0.5 0.4 0.8 0.8 0.8h818c0.5 0 0.8-0.4 0.8-0.8v-20.9c0-0.5-0.4-0.8-0.8-0.9h-818z" fill="#3F63F6" p-id="4872"></path><path d="M91.2 642h828c2.6 0 4.8 2.1 4.8 4.8v30.9c0 2.6-2.1 4.8-4.8 4.8h-828c-2.6 0-4.8-2.1-4.8-4.8v-30.9c0-2.7 2.2-4.8 4.8-4.8z" fill="#FFFFFF" p-id="4873"></path><path d="M915.5 691.4H95c-9.6 0-17.5-7.8-17.5-17.5v-23.4c0-9.6 7.8-17.5 17.5-17.5h820.5c9.6 0 17.5 7.8 17.5 17.5v23.4c-0.1 9.7-7.9 17.5-17.5 17.5zM95.4 673.5h819.7v-22.6H95.4v22.6z" fill="#3F63F6" p-id="4874"></path><path d="M128.4 165.7h739.3v475.7H128.4z" fill="#FFFFFF" p-id="4875"></path><path d="M876.7 650.9H119.5V156.2h757.2v494.7z m-739.4-19h721.5V175.2H137.3v456.7z" fill="#3F63F6" p-id="4876"></path><path d="M151.6 613.3V175.2h707.2v438.1" fill="#D0D9FB" p-id="4877"></path><path d="M151.6 613.3h707.2v19.6H151.6z" fill="#AFC2F9" p-id="4878"></path><path d="M218 264.8h23.2c2.5 0 4.5 2 4.5 4.5v284.3c0 2.5-2 4.5-4.5 4.5H218c-2.5 0-4.5-2-4.5-4.5V269.3c0-2.5 2-4.5 4.5-4.5zM304.9 339.3h23.2c2.5 0 4.5 2 4.5 4.5v209.8c0 2.5-2 4.5-4.5 4.5h-23.2c-2.5 0-4.5-2-4.5-4.5V343.8c0-2.5 2-4.5 4.5-4.5zM477 359.4h23.2c2.5 0 4.5 2 4.5 4.5v189.7c0 2.5-2 4.5-4.5 4.5H477c-2.5 0-4.5-2-4.5-4.5V363.9c0-2.5 2-4.5 4.5-4.5zM555.5 448.7h23.2c2.5 0 4.5 2 4.5 4.5v100.4c0 2.5-2 4.5-4.5 4.5h-23.2c-2.5 0-4.5-2-4.5-4.5V453.2c0.1-2.5 2.1-4.5 4.5-4.5zM393.6 403.6h23.2c2.5 0 4.5 2 4.5 4.5v145.5c0 2.5-2 4.5-4.5 4.5h-23.2c-2.5 0-4.5-2-4.5-4.5V408.1c0-2.5 2-4.5 4.5-4.5z" fill="#BBC9FA" p-id="4879"></path><path d="M151.6 175.2h707.2v19.6H151.6z" fill="#AFC2F9" p-id="4880"></path><path d="M218 255.3h23.2c2.5 0 4.5 2 4.5 4.5V544c0 2.5-2 4.5-4.5 4.5H218c-2.5 0-4.5-2-4.5-4.5V259.7c0-2.4 2-4.4 4.5-4.4zM304.9 329.8h23.2c2.5 0 4.5 2 4.5 4.5V544c0 2.5-2 4.5-4.5 4.5h-23.2c-2.5 0-4.5-2-4.5-4.5V334.2c0-2.4 2-4.4 4.5-4.4zM477 349.9h23.2c2.5 0 4.5 2 4.5 4.5V544c0 2.5-2 4.5-4.5 4.5H477c-2.5 0-4.5-2-4.5-4.5V354.3c0-2.4 2-4.4 4.5-4.4zM555.5 439.1h23.2c2.5 0 4.5 2 4.5 4.5V544c0 2.5-2 4.5-4.5 4.5h-23.2c-2.5 0-4.5-2-4.5-4.5V443.6c0.1-2.5 2.1-4.5 4.5-4.5zM393.6 394h23.2c2.5 0 4.5 2 4.5 4.5V544c0 2.5-2 4.5-4.5 4.5h-23.2c-2.5 0-4.5-2-4.5-4.5V398.5c0-2.5 2-4.5 4.5-4.5z" fill="#3F63F6" p-id="4881"></path><path d="M858.8 469.4l-48.6-28.2c-1.3-0.7-2.9-0.3-3.7 1l-6.9 11.8c-0.7 1.3-0.3 2.9 1 3.7l58.2 33.7v-22z" fill="#BBC9FA" p-id="4882"></path><path d="M604.5 396.4a114.7 114.7 0 1 0 229.4 0 114.7 114.7 0 1 0-229.4 0Z" fill="#FFFFFF" p-id="4883"></path><path d="M719.2 284.6c60.2 0 110.2 46.6 114.4 106.6 0.2-2.7 0.3-5.4 0.3-8.1 0-63.3-51.4-114.7-114.8-114.6-63.3 0-114.6 51.3-114.6 114.6 0 2.7 0.1 5.4 0.3 8.1 4.3-60.1 54.2-106.6 114.4-106.6z" fill="#AFC2F9" p-id="4884"></path><path d="M806.6 441.9l10.1-17.4c0.7-1.3 2.4-1.7 3.7-1l124.8 72.4c1.3 0.7 1.7 2.4 1 3.7L936.1 517c-0.7 1.3-2.4 1.7-3.7 1l-124.8-72.4c-1.3-0.7-1.8-2.4-1-3.7z" fill="#3F63F6" p-id="4885"></path><path d="M719.2 498.9c-68.6 0-124.2-55.7-124.2-124.3s55.7-124.2 124.3-124.2S843.5 306 843.5 374.6c-0.1 68.6-55.7 124.2-124.3 124.3z m0-229.4c-58.1 0-105.1 47.1-105.1 105.1 0 58.1 47.1 105.1 105.1 105.1 58.1 0 105.1-47.1 105.1-105.1 0-58-47-105-105.1-105.1z" fill="#3F63F6" p-id="4886"></path><path d="M137.3 175.2h14.3v19.6h-14.3zM137.3 613.3h14.3v19.6h-14.3z" fill="#D0D9FB" p-id="4887"></path></svg>